<svg width="56" height="56" viewBox="0 0 56 56" fill="none" xmlns="http://www.w3.org/2000/svg">
<circle cx="28" cy="28" r="27.6154" fill="#265CFF" stroke="#265CFF" stroke-width="0.769231"/>
<path d="M32.3073 23.6937H22.256C22.0656 23.6937 21.883 23.618 21.7484 23.4834C21.6137 23.3488 21.5381 23.1661 21.5381 22.9757V20.1039C21.5381 19.9135 21.6137 19.7309 21.7484 19.5963C21.883 19.4616 22.0656 19.386 22.256 19.386H32.3073C32.4977 19.386 32.6803 19.4616 32.815 19.5963C32.9496 19.7309 33.0253 19.9135 33.0253 20.1039V22.9757C33.0253 23.1661 32.9496 23.3488 32.815 23.4834C32.6803 23.618 32.4977 23.6937 32.3073 23.6937ZM22.974 22.2578H31.5894V20.7788H22.974V22.2578Z" fill="white"/>
<path d="M32.3073 25.1868H22.256C22.0656 25.1868 21.883 25.2624 21.7484 25.3971C21.6137 25.5317 21.5381 25.7143 21.5381 25.9047V28.7191C21.5381 28.9095 21.6137 29.0921 21.7484 29.2267C21.883 29.3614 22.0656 29.437 22.256 29.437H30.4119L33.0253 26.7806V25.9047C33.0253 25.7143 32.9496 25.5317 32.815 25.3971C32.6803 25.2624 32.4977 25.1868 32.3073 25.1868ZM31.5894 28.0011H22.974V26.5652H31.5894V28.0011Z" fill="white"/>
<path d="M25.171 37.7008V37.6578L25.4007 36.6598H20.1023V17.9501H34.4613V25.309L35.8972 23.9521V17.2321C35.8972 17.0417 35.8215 16.8591 35.6869 16.7244C35.5522 16.5898 35.3696 16.5142 35.1792 16.5142H19.3843C19.1939 16.5142 19.0113 16.5898 18.8767 16.7244C18.742 16.8591 18.6664 17.0417 18.6664 17.2321V37.3347C18.6664 37.5251 18.742 37.7077 18.8767 37.8423C19.0113 37.977 19.1939 38.0526 19.3843 38.0526H25.1279C25.1338 37.9345 25.1482 37.8169 25.171 37.7008Z" fill="white"/>
<path d="M33.0255 28.8413L32.4655 29.4085C32.6044 29.3798 32.7317 29.3107 32.8314 29.2097C32.9311 29.1088 32.9986 28.9806 33.0255 28.8413Z" fill="white"/>
<path d="M21.5381 34.4197C21.5381 34.6101 21.6137 34.7927 21.7484 34.9274C21.883 35.062 22.0656 35.1377 22.256 35.1377H25.7309L25.9463 34.2043L26.0396 33.8095V33.7736H22.974V32.3089H27.5258L28.9617 30.873H22.256C22.0656 30.873 21.883 30.9487 21.7484 31.0833C21.6137 31.218 21.5381 31.4006 21.5381 31.591V34.4197Z" fill="white"/>
<path d="M41.2745 27.0463L38.855 24.6268C38.7476 24.5191 38.6201 24.4337 38.4796 24.3754C38.3392 24.3171 38.1886 24.2871 38.0365 24.2871C37.8845 24.2871 37.7339 24.3171 37.5935 24.3754C37.453 24.4337 37.3255 24.5191 37.2181 24.6268L27.375 34.5273L26.5637 37.9806C26.5333 38.1296 26.5326 38.2831 26.5617 38.4324C26.5907 38.5816 26.6489 38.7237 26.733 38.8504C26.817 38.9771 26.9252 39.086 27.0514 39.1708C27.1776 39.2556 27.3193 39.3147 27.4683 39.3447C27.5423 39.3522 27.6169 39.3522 27.6909 39.3447C27.7789 39.3591 27.8686 39.3591 27.9565 39.3447L31.4386 38.5765L41.2745 28.7191C41.3819 28.6123 41.4672 28.4854 41.5254 28.3455C41.5836 28.2057 41.6136 28.0557 41.6136 27.9042C41.6136 27.7527 41.5836 27.6028 41.5254 27.4629C41.4672 27.3231 41.3819 27.1961 41.2745 27.0893V27.0463ZM30.7063 37.2699L28.0786 37.8514L28.7176 35.2452L36.0981 27.7858L38.1227 29.8104L30.7063 37.2699ZM38.934 28.9991L36.9094 26.9745L38.0509 25.8473L40.0899 27.8863L38.934 28.9991Z" fill="white"/>
<rect x="22.7689" y="20.6165" width="9.23077" height="1.84615" fill="#265CFF"/>
<rect x="22.3997" y="26.2781" width="9.47692" height="1.72308" fill="#265CFF"/>
<path d="M22.3997 32.3088H27.5295L25.8458 34.0319H22.3997V32.3088Z" fill="#265CFF"/>
</svg>
